<svg width="36" height="28" viewBox="0 0 36 28" fill="none" xmlns="http://www.w3.org/2000/svg">
<path d="M0 6C0 2.68629 2.68629 0 6 0H30C33.3137 0 36 2.68629 36 6V22C36 25.3137 33.3137 28 30 28H6C2.68629 28 0 25.3137 0 22V6Z" fill="#FFBD95"/>
<g clip-path="url(#clip0_7908_49212)">
<path d="M24.9361 14.2073C24.8718 14.0756 24.8718 13.9245 24.9361 13.7928L25.5329 12.5721C25.8651 11.8923 25.6019 11.0822 24.9336 10.7276L23.7333 10.0907C23.6038 10.022 23.515 9.89979 23.4896 9.75545L23.2549 8.41705C23.1242 7.67186 22.4349 7.17112 21.6859 7.27708L20.3405 7.4674C20.1953 7.4879 20.0517 7.44121 19.9463 7.3393L18.9698 6.39456C18.426 5.8685 17.5741 5.86847 17.0304 6.39456L16.0537 7.3394C15.9484 7.44133 15.8048 7.48793 15.6596 7.46749L14.3142 7.27718C13.565 7.17115 12.8759 7.67196 12.7452 8.41714L12.5104 9.75548C12.4851 9.89985 12.3963 10.0221 12.2668 10.0908L11.0665 10.7277C10.3982 11.0822 10.135 11.8924 10.4672 12.5722L11.0639 13.7929C11.1283 13.9246 11.1283 14.0757 11.0639 14.2074L10.4672 15.4281C10.135 16.1078 10.3982 16.918 11.0665 17.2726L12.2668 17.9094C12.3963 17.9781 12.4851 18.1004 12.5104 18.2447L12.7452 19.5831C12.8642 20.2615 13.4459 20.7372 14.1144 20.7372C14.1802 20.7372 14.2471 20.7325 14.3142 20.723L15.6596 20.5327C15.8047 20.5121 15.9484 20.5589 16.0538 20.6608L17.0304 21.6056C17.3023 21.8686 17.6511 22.0001 18 22.0001C18.3489 22.0001 18.6979 21.8686 18.9697 21.6056L19.9463 20.6608C20.0517 20.5589 20.1953 20.5124 20.3405 20.5327L21.6859 20.723C22.4352 20.829 23.1242 20.3283 23.2549 19.5831L23.4897 18.2447C23.515 18.1004 23.6038 17.9782 23.7333 17.9094L24.9336 17.2726C25.6019 16.918 25.8651 16.1078 25.5329 15.4281L24.9361 14.2073ZM16.1544 9.84741C17.0873 9.84741 17.8462 10.6064 17.8462 11.5393C17.8462 12.4721 17.0873 13.2311 16.1544 13.2311C15.2215 13.2311 14.4626 12.4721 14.4626 11.5393C14.4626 10.6064 15.2215 9.84741 16.1544 9.84741ZM15.2811 17.3714C15.1911 17.4615 15.073 17.5066 14.9549 17.5066C14.8368 17.5066 14.7187 17.4616 14.6286 17.3714C14.4485 17.1913 14.4485 16.8991 14.6286 16.7189L20.7189 10.6287C20.8991 10.4485 21.1912 10.4485 21.3714 10.6287C21.5516 10.8088 21.5516 11.101 21.3714 11.2812L15.2811 17.3714ZM19.8456 18.1527C18.9128 18.1527 18.1538 17.3938 18.1538 16.4609C18.1538 15.528 18.9128 14.7691 19.8456 14.7691C20.7785 14.7691 21.5375 15.528 21.5375 16.4609C21.5375 17.3938 20.7785 18.1527 19.8456 18.1527Z" fill="#FF6422"/>
<path d="M19.8457 15.6914C19.4217 15.6914 19.0767 16.0364 19.0767 16.4604C19.0767 16.8844 19.4216 17.2294 19.8457 17.2294C20.2697 17.2294 20.6147 16.8844 20.6147 16.4604C20.6147 16.0364 20.2697 15.6914 19.8457 15.6914Z" fill="#FF6422"/>
<path d="M16.1542 10.7695C15.7302 10.7695 15.3853 11.1145 15.3853 11.5385C15.3853 11.9626 15.7302 12.3076 16.1542 12.3076C16.5783 12.3076 16.9233 11.9626 16.9233 11.5385C16.9232 11.1145 16.5783 10.7695 16.1542 10.7695Z" fill="#FF6422"/>
</g>
<defs>
<clipPath id="clip0_7908_49212">
<rect width="16" height="16" fill="white" transform="translate(10 6)"/>
</clipPath>
</defs>
</svg>
